<svg xmlns="http://www.w3.org/2000/svg" xmlns:xlink="http://www.w3.org/1999/xlink" width="48" height="28" version="1.1" viewBox="0 0 48 28"><title>Shape</title><desc>Created with Sketch.</desc><g id="Page-1" fill="none" fill-rule="evenodd" stroke="none" stroke-width="1"><path id="Shape" fill="#FFF" d="M47.411,3.2515 L25.545,27.0925 C25.477,27.1925 25.5,27.3235 25.412,27.4125 C25.017,27.8085 24.494,27.9795 23.977,27.9555 C23.465,27.9755 22.949,27.8025 22.557,27.4115 C22.47,27.3235 22.494,27.1945 22.427,27.0975 L0.558,3.2555 C-0.186,2.5105 -0.186,1.3055 0.558,0.5605 C1.302,-0.1825 2.507,-0.1825 3.252,0.5605 L23.982,23.1635 L44.715,0.5595 C45.459,-0.1865 46.665,-0.1865 47.409,0.5595 C48.154,1.3015 48.154,2.5075 47.411,3.2515 L47.411,3.2515 Z"/></g></svg>